<?xml version="1.0" encoding="UTF-8" standalone="no"?>
<!-- Created with Inkscape (http://www.inkscape.org/) -->

<svg
   xmlns:dc="http://purl.org/dc/elements/1.1/"
   xmlns:cc="http://creativecommons.org/ns#"
   xmlns:rdf="http://www.w3.org/1999/02/22-rdf-syntax-ns#"
   xmlns:svg="http://www.w3.org/2000/svg"
   xmlns="http://www.w3.org/2000/svg"
   xmlns:sodipodi="http://sodipodi.sourceforge.net/DTD/sodipodi-0.dtd"
   xmlns:inkscape="http://www.inkscape.org/namespaces/inkscape"
   id="svg3909"
   version="1.1"
   inkscape:version="0.48.3.1 r9886"
   width="300"
   height="300"
   xml:space="preserve"
   sodipodi:docname="openshift_logo.svg"><metadata
     id="metadata3915"><rdf:RDF><cc:Work
         rdf:about=""><dc:format>image/svg+xml</dc:format><dc:type
           rdf:resource="http://purl.org/dc/dcmitype/StillImage" /><dc:title /></cc:Work></rdf:RDF></metadata><defs
     id="defs3913"><clipPath
   clipPathUnits="userSpaceOnUse"
   id="clipPath3923"><path
     d="M 0,768 1024,768 1024,0 0,0 0,768 z"
     id="path3925"
     inkscape:connector-curvature="0" /></clipPath><clipPath
   clipPathUnits="userSpaceOnUse"
   id="clipPath3979"><path
     d="M 0,768 1024,768 1024,0 0,0 0,768 z"
     id="path3981"
     inkscape:connector-curvature="0" /></clipPath>



</defs><sodipodi:namedview
     pagecolor="#ffffff"
     bordercolor="#666666"
     borderopacity="1"
     objecttolerance="10"
     gridtolerance="10"
     guidetolerance="10"
     inkscape:pageopacity="0"
     inkscape:pageshadow="2"
     inkscape:window-width="1366"
     inkscape:window-height="713"
     id="namedview3911"
     showgrid="false"
     inkscape:zoom="0.54270833"
     inkscape:cx="640"
     inkscape:cy="480"
     inkscape:window-x="-2"
     inkscape:window-y="-3"
     inkscape:window-maximized="1"
     inkscape:current-layer="g3917" /><g
     id="g3917"
     inkscape:groupmode="layer"
     inkscape:label="logo"
     transform="matrix(1.25,0,0,-1.25,0,300)">
<g
   id="g3367"
   transform="translate(-221.23916,-263.60998)"><g
     id="g3919"><g
       clip-path="url(#clipPath3923)"
       id="g3921"><g
         transform="translate(304.9634,416.0308)"
         id="g3927"><path
           id="path3929"
           style="fill:#c32034;fill-opacity:1;fill-rule:nonzero;stroke:none"
           d="m 0,0 -25.748,-9.369 c 0.33,-4.128 1.041,-8.206 2.042,-12.201 L 0.75,-12.664 C -0.043,-8.529 -0.326,-4.268 0,0"
           inkscape:connector-curvature="0" /></g><g
         transform="translate(418.7466,444.5015)"
         id="g3931"><path
           id="path3933"
           style="fill:#c32034;fill-opacity:1;fill-rule:nonzero;stroke:none"
           d="M 0,0 C -1.795,3.704 -3.873,7.284 -6.279,10.657 L -32.02,1.288 c 2.995,-3.064 5.508,-6.508 7.563,-10.191 L 0,0 z"
           inkscape:connector-curvature="0" /></g><g
         transform="translate(362.1055,451.793)"
         id="g3935"><path
           id="path3937"
           style="fill:#db212f;fill-opacity:1;fill-rule:nonzero;stroke:none"
           d="m 0,0 c 5.356,-2.499 9.995,-5.908 13.907,-9.906 l 25.742,9.37 C 32.519,9.469 22.807,17.83 10.906,23.383 c -36.797,17.159 -80.702,1.18 -97.861,-35.613 -5.553,-11.907 -7.617,-24.556 -6.648,-36.801 l 25.745,9.368 c 0.427,5.578 1.789,11.167 4.284,16.526 C -52.424,0.772 -23.906,11.146 0,0"
           inkscape:connector-curvature="0" /></g><g
         transform="translate(282.8599,395.0469)"
         id="g3939"><path
           id="path3941"
           style="fill:#ea2227;fill-opacity:1;fill-rule:nonzero;stroke:none"
           d="m 0,0 -24.46,-8.909 c 2.248,-8.918 6.145,-17.391 11.502,-24.932 L 12.73,-24.49 C 6.135,-17.719 1.751,-9.153 0,0"
           inkscape:connector-curvature="0" /></g><g
         transform="translate(389.5596,404.7539)"
         id="g3943"><path
           id="path3945"
           style="fill:#db212f;fill-opacity:1;fill-rule:nonzero;stroke:none"
           d="m 0,0 c -0.409,-5.575 -1.817,-11.167 -4.319,-16.53 -11.15,-23.91 -39.668,-34.285 -63.574,-23.136 -5.363,2.501 -10.035,5.883 -13.936,9.888 l -25.687,-9.352 c 7.113,-10.006 16.816,-18.369 28.721,-23.926 36.799,-17.156 80.698,-1.177 97.857,35.619 5.557,11.905 7.608,24.549 6.626,36.785 L 0,0 z"
           inkscape:connector-curvature="0" /></g><g
         transform="translate(395.8906,436.1816)"
         id="g3947"><path
           id="path3949"
           style="fill:#ea2227;fill-opacity:1;fill-rule:nonzero;stroke:none"
           d="m 0,0 -24.458,-8.903 c 4.542,-8.139 6.689,-17.513 5.986,-26.938 l 25.688,9.345 C 6.481,-17.277 4.021,-8.279 0,0"
           inkscape:connector-curvature="0" /></g><g
         transform="translate(279.2158,406.6621)"
         id="g3951"><path
           id="path3953"
           style="fill:#ad213a;fill-opacity:1;fill-rule:nonzero;stroke:none"
           d="M 0,0 25.684,9.263 25.579,4.183 0.799,-5.03 0,0 z"
           inkscape:connector-curvature="0" /></g><g
         transform="translate(386.7266,445.8594)"
         id="g3955"><path
           id="path3957"
           style="fill:#ad213a;fill-opacity:1;fill-rule:nonzero;stroke:none"
           d="M 0,0 26.085,8.814 28.797,4.786 3.452,-4.035 0,0 z"
           inkscape:connector-curvature="0" /></g><g
         transform="translate(282.0435,365.709)"
         id="g3959"><path
           id="path3961"
           style="fill:#ba2034;fill-opacity:1;fill-rule:nonzero;stroke:none"
           d="M 0,0 25.716,9.213 33.493,1.988 6.526,-7.979 0,0 z"
           inkscape:connector-curvature="0" /></g><g
         transform="translate(415.6782,414.0278)"
         id="g3963"><path
           id="path3965"
           style="fill:#ba2034;fill-opacity:1;fill-rule:nonzero;stroke:none"
           d="M 0,0 -26.119,-9.274 -28.043,-19.567 -0.195,-9.796 0,0 z"
           inkscape:connector-curvature="0" /></g></g></g><g
     id="text3967"
     style="font-family:Overpass;-inkscape-font-specification:Overpass"
     transform="scale(1,-1)"><path
       id="path3359"
       style="font-size:34.30120087px;font-variant:normal;font-weight:bold;font-stretch:normal;writing-mode:lr-tb;fill:#231f20;fill-opacity:1;fill-rule:nonzero;stroke:none;font-family:Overpass;-inkscape-font-specification:Overpass"
       d="m 254.36755,-285.43968 c -1.29523,0 -2.45647,-0.16749 -3.48371,-0.50246 -1.02726,-0.34614 -1.93727,-0.80952 -2.73003,-1.39014 -0.78161,-0.59178 -1.45155,-1.28406 -2.00983,-2.07683 -0.5583,-0.80393 -1.01609,-1.66369 -1.37339,-2.57929 -0.34614,-0.92675 -0.60296,-1.887 -0.77044,-2.88076 -0.15632,-1.00491 -0.23448,-2.00425 -0.23448,-2.99801 0,-0.98257 0.0782,-1.97074 0.23448,-2.96451 0.16748,-1.0049 0.4243,-1.96515 0.77044,-2.88076 0.3573,-0.92674 0.81509,-1.7865 1.37339,-2.57929 0.55828,-0.80391 1.22822,-1.49619 2.00983,-2.07683 0.79276,-0.59176 1.70277,-1.05514 2.73003,-1.39014 1.02724,-0.34611 2.18848,-0.51918 3.48371,-0.51921 1.29522,3e-5 2.45087,0.1731 3.46697,0.51921 1.02723,0.335 1.93166,0.79838 2.71328,1.39014 0.78158,0.58064 1.45153,1.27292 2.00984,2.07683 0.55826,0.79279 1.01047,1.65255 1.35664,2.57929 0.35728,0.91561 0.61409,1.87586 0.77043,2.88076 0.16747,0.99377 0.25121,1.98194 0.25123,2.96451 -2e-5,0.99376 -0.0838,1.9931 -0.25123,2.99801 -0.15634,0.99376 -0.41315,1.95401 -0.77043,2.88076 -0.34617,0.9156 -0.79838,1.77536 -1.35664,2.57929 -0.55831,0.79277 -1.22826,1.48505 -2.00984,2.07683 -0.78162,0.58062 -1.68605,1.044 -2.71328,1.39014 -1.0161,0.33497 -2.17175,0.50246 -3.46697,0.50246 m 0,-4.47189 c 1.0719,10e-6 1.97075,-0.25122 2.69653,-0.75369 0.73693,-0.50245 1.32871,-1.14448 1.77536,-1.92609 0.45778,-0.78159 0.78717,-1.63577 0.98817,-2.56254 0.20096,-0.93791 0.30146,-1.84234 0.30147,-2.71328 -10e-6,-0.6141 -0.0447,-1.2338 -0.13398,-1.8591 -0.0782,-0.63643 -0.21217,-1.24496 -0.40197,-1.8256 -0.18984,-0.59177 -0.43548,-1.14447 -0.73694,-1.65811 -0.30149,-0.52478 -0.66438,-0.97699 -1.08866,-1.35664 -0.42432,-0.39078 -0.92119,-0.69784 -1.49063,-0.92118 -0.5583,-0.22329 -1.19475,-0.33495 -1.90935,-0.33497 -0.72578,2e-5 -1.3734,0.11726 -1.94284,0.35172 -0.5583,0.2345 -1.05517,0.55273 -1.49063,0.95467 -0.4243,0.39082 -0.78719,0.84862 -1.08866,1.37339 -0.30148,0.52481 -0.54713,1.0831 -0.73694,1.67487 -0.18982,0.5918 -0.32939,1.19475 -0.41871,1.80885 -0.0782,0.61413 -0.11725,1.21149 -0.11724,1.7921 -1e-5,0.9156 0.10048,1.84794 0.30147,2.79702 0.20098,0.93794 0.52479,1.79211 0.97142,2.56254 0.45779,0.75928 1.05516,1.38456 1.79211,1.87585 0.73693,0.48013 1.64693,0.7202 2.73002,0.72019"
       inkscape:connector-curvature="0" /><path
       id="path3361"
       style="font-size:34.30120087px;font-variant:normal;font-weight:bold;font-stretch:normal;writing-mode:lr-tb;fill:#231f20;fill-opacity:1;fill-rule:nonzero;stroke:none;font-family:Overpass;-inkscape-font-specification:Overpass"
       d="m 270.86025,-285.8584 0,-24.01754 10.30041,0 c 1.51853,3e-5 2.79701,0.22334 3.83544,0.66995 1.0384,0.43548 1.88141,1.0161 2.52904,1.74185 0.6476,0.71463 1.11097,1.52415 1.39014,2.42856 0.29029,0.90444 0.43544,1.82003 0.43546,2.74677 -2e-5,0.58064 -0.067,1.17242 -0.20098,1.77536 -0.13401,0.5918 -0.34058,1.17242 -0.6197,1.74186 -0.27916,0.5583 -0.63647,1.08309 -1.07191,1.57437 -0.43549,0.4913 -0.96028,0.92676 -1.57437,1.30639 -0.60297,0.36848 -1.30083,0.65879 -2.09358,0.87093 -0.78162,0.21216 -1.65813,0.31823 -2.62954,0.31822 l -5.66104,0 0,8.84328 -4.63937,0 m 10.50139,-13.24817 c 0.59178,2e-5 1.08865,-0.0949 1.49063,-0.28472 0.40196,-0.18981 0.72576,-0.43545 0.97142,-0.73694 0.2568,-0.30146 0.44103,-0.64202 0.55271,-1.02167 0.11164,-0.37962 0.16747,-0.75926 0.16749,-1.13891 -2e-5,-0.34612 -0.0503,-0.70342 -0.15074,-1.07191 -0.0893,-0.37962 -0.25683,-0.72576 -0.50246,-1.03842 -0.2345,-0.31262 -0.5583,-0.56943 -0.97142,-0.77043 -0.41315,-0.20097 -0.93236,-0.30146 -1.55763,-0.30148 l -5.86202,0 0,6.36448 5.86202,0"
       inkscape:connector-curvature="0" /><path
       id="path3363"
       style="font-size:34.30120087px;font-variant:normal;font-weight:bold;font-stretch:normal;writing-mode:lr-tb;fill:#231f20;fill-opacity:1;fill-rule:nonzero;stroke:none;font-family:Overpass;-inkscape-font-specification:Overpass"
       d="m 295.76293,-285.8584 0,-24.01754 16.39691,0 0,4.40489 -11.75754,0 0,5.04134 6.91719,0 0,4.38814 -6.91719,0 0,5.79503 12.47773,0 0,4.38814 -17.1171,0"
       inkscape:connector-curvature="0" /><path
       id="path3365"
       style="font-size:34.30120087px;font-variant:normal;font-weight:bold;font-stretch:normal;writing-mode:lr-tb;fill:#231f20;fill-opacity:1;fill-rule:nonzero;stroke:none;font-family:Overpass;-inkscape-font-specification:Overpass"
       d="m 334.66008,-285.8584 -9.52997,-14.00186 c -0.15633,-0.23446 -0.3294,-0.51919 -0.51921,-0.85418 -0.17866,-0.34612 -0.33498,-0.66434 -0.46896,-0.95467 0.0335,0.25683 0.0558,0.5583 0.067,0.90443 0.0223,0.34615 0.0335,0.64763 0.0335,0.90442 l 0,14.00186 -4.60587,0 0,-24.01754 4.35464,0 9.29549,13.83437 c 0.14514,0.22333 0.31263,0.50247 0.50246,0.83743 0.1898,0.33499 0.35729,0.65879 0.50246,0.97142 -0.0335,-0.32379 -0.0614,-0.6476 -0.0837,-0.97142 -0.0112,-0.33496 -0.0168,-0.6141 -0.0168,-0.83743 l 0,-13.83437 4.58913,0 0,24.01754 -4.12017,0"
       inkscape:connector-curvature="0" /></g><g
     id="text3971"
     style="font-family:Overpass;-inkscape-font-specification:Overpass"
     transform="scale(1,-1)"><path
       id="path3348"
       style="font-size:34.30120087px;font-variant:normal;font-weight:300;font-stretch:normal;writing-mode:lr-tb;fill:#231f20;fill-opacity:1;fill-rule:nonzero;stroke:none;font-family:Overpass;-inkscape-font-specification:Overpass"
       d="m 358.05901,-304.41588 c -0.14517,-0.34612 -0.34615,-0.66435 -0.60295,-0.95468 -0.25683,-0.30145 -0.56947,-0.55826 -0.93793,-0.77043 -0.36848,-0.2233 -0.79278,-0.39637 -1.27289,-0.51921 -0.46897,-0.1228 -0.99376,-0.18421 -1.57437,-0.18424 -1.15008,3e-5 -2.04893,0.25125 -2.69653,0.75369 -0.64762,0.50248 -0.97143,1.21151 -0.97142,2.12708 -1e-5,0.56947 0.17864,1.05518 0.53595,1.45713 0.3573,0.39082 0.82626,0.73696 1.40689,1.03842 0.58061,0.30149 1.23939,0.58063 1.97634,0.83743 0.74809,0.24566 1.50736,0.51922 2.27781,0.82068 0.78159,0.29032 1.54086,0.63088 2.27781,1.02167 0.7481,0.37964 1.41246,0.84861 1.99309,1.40688 0.5806,0.54713 1.04957,1.2115 1.40689,1.99309 0.35728,0.77045 0.53594,1.6972 0.53595,2.78027 -1e-5,1.15008 -0.21216,2.17175 -0.63644,3.065 -0.41315,0.8821 -0.98819,1.6302 -1.72511,2.24432 -0.73696,0.60295 -1.60789,1.06633 -2.61279,1.39014 -0.99377,0.31264 -2.06568,0.46896 -3.21574,0.46896 -1.07192,0 -2.07684,-0.13957 -3.01475,-0.41872 -0.92677,-0.26798 -1.76978,-0.65319 -2.52905,-1.15565 -0.74811,-0.51363 -1.39572,-1.12774 -1.94284,-1.84235 -0.54712,-0.72577 -0.97142,-1.53529 -1.27289,-2.42856 l 3.36647,-1.22265 c 0.24564,0.53597 0.54712,1.02726 0.90443,1.47388 0.36846,0.44664 0.78718,0.83186 1.25615,1.15566 0.46895,0.31264 0.98257,0.55829 1.54087,0.73694 0.56944,0.17865 1.17798,0.26798 1.8256,0.26798 0.6476,0 1.23939,-0.0782 1.77536,-0.23448 0.53594,-0.15632 0.99374,-0.3908 1.37338,-0.70345 0.37963,-0.31263 0.67552,-0.69785 0.88768,-1.15565 0.21214,-0.46896 0.31821,-1.00491 0.31823,-1.60787 -2e-5,-0.7146 -0.17867,-1.31197 -0.53596,-1.7921 -0.35732,-0.49129 -0.82628,-0.91559 -1.40689,-1.2729 -0.58063,-0.35729 -1.24499,-0.66994 -1.99308,-0.93792 -0.73695,-0.26797 -1.49622,-0.54153 -2.27782,-0.82069 -0.77044,-0.27913 -1.52971,-0.59177 -2.27781,-0.93792 -0.73695,-0.34613 -1.39573,-0.77042 -1.97634,-1.2729 -0.58062,-0.50244 -1.04958,-1.10539 -1.40689,-1.80885 -0.3573,-0.70343 -0.53595,-1.56319 -0.53595,-2.57929 0,-0.84858 0.16748,-1.65251 0.50246,-2.4118 0.34613,-0.75925 0.84301,-1.42361 1.49063,-1.99309 0.6476,-0.58059 1.44596,-1.03839 2.39505,-1.37339 0.94908,-0.33495 2.03216,-0.50243 3.24924,-0.50246 1.01607,3e-5 1.93724,0.12285 2.76352,0.36847 0.82625,0.23451 1.54644,0.5639 2.16057,0.98817 0.62527,0.42432 1.14448,0.92678 1.55763,1.50738 0.41311,0.58064 0.72575,1.21151 0.93792,1.8926 l -3.29948,1.10541"
       inkscape:connector-curvature="0" /><path
       id="path3350"
       style="font-size:34.30120087px;font-variant:normal;font-weight:300;font-stretch:normal;writing-mode:lr-tb;fill:#231f20;fill-opacity:1;fill-rule:nonzero;stroke:none;font-family:Overpass;-inkscape-font-specification:Overpass"
       d="m 383.24265,-285.8584 0,-10.70238 -10.95361,0 0,10.70238 -3.56746,0 0,-24.01754 3.56746,0 0,9.94869 10.95361,0 0,-9.94869 3.56745,0 0,24.01754 -3.56745,0"
       inkscape:connector-curvature="0" /><path
       id="path3352"
       style="font-size:34.30120087px;font-variant:normal;font-weight:300;font-stretch:normal;writing-mode:lr-tb;fill:#231f20;fill-opacity:1;fill-rule:nonzero;stroke:none;font-family:Overpass;-inkscape-font-specification:Overpass"
       d="m 394.08291,-285.8584 0,-24.01754 3.56746,0 0,24.01754 -3.56746,0"
       inkscape:connector-curvature="0" /><path
       id="path3354"
       style="font-size:34.30120087px;font-variant:normal;font-weight:300;font-stretch:normal;writing-mode:lr-tb;fill:#231f20;fill-opacity:1;fill-rule:nonzero;stroke:none;font-family:Overpass;-inkscape-font-specification:Overpass"
       d="m 404.80645,-285.8584 0,-24.01754 14.88953,0 0,3.36648 -11.32207,0 0,6.58221 7.31915,0 0,3.36647 -7.31915,0 0,10.70238 -3.56746,0"
       inkscape:connector-curvature="0" /><path
       id="path3356"
       style="font-size:34.30120087px;font-variant:normal;font-weight:300;font-stretch:normal;writing-mode:lr-tb;fill:#231f20;fill-opacity:1;fill-rule:nonzero;stroke:none;font-family:Overpass;-inkscape-font-specification:Overpass"
       d="m 434.00789,-306.44247 0,20.58407 -3.56746,0 0,-20.58407 -6.79995,0 0,-3.43347 17.1506,0 0,3.43347 -6.78319,0"
       inkscape:connector-curvature="0" /></g></g>


</g></svg>